# xmcd
#
# Track frame offsets:
#	150
#	19215
#	41875
#	62392
#	81809
#	103392
#	123126
#	147833
#	170323
#	196702
#
# Disc length: 2840 seconds
#
# Revision: 1
# Processed by: cddbd v1.5.2PL0 Copyright (c) Steve Scherf et al.
# Submitted via: EZCDAudioConverter 8.0.2.1
#
DISCID=7f0b160a
DTITLE=Various Artist - Top Hits 24. Nỗi Nhớ
DYEAR=2005
DGENRE=
TTITLE0=Minh Tuyết, Bằng Kiều - Không yêu thì thôi
TTITLE1=Nhật Trung - Cô đơn
TTITLE2=Thủy Tiên - Đừng làm em cô đơn
TTITLE3=Vân Quỳnh - Mãi xa nhau
TTITLE4=Bằng Kiều, Vân Quỳnh - Nỗi Nhớ
TTITLE5=Lương Tùng Quang - Cô đơn mình anh
TTITLE6=Minh Tuyết - Qua rồi phút đam mê
TTITLE7=Ninh Cát Loan Châu - Hỏi tình
TTITLE8=Nguyễn Hưng - Dặm đường gió bụi
TTITLE9=Adam Hồ - Come Together
EXTD=
EXTT0=
EXTT1=
EXTT2=
EXTT3=
EXTT4=
EXTT5=
EXTT6=
EXTT7=
EXTT8=
EXTT9=
PLAYORDER=
